<mxfile host="app.diagrams.net" modified="2023-10-09T06:42:26.444Z" agent="Mozilla/5.0 (Windows NT 10.0; Win64; x64) AppleWebKit/537.36 (KHTML, like Gecko) Chrome/117.0.0.0 Safari/537.36 Edg/117.0.2045.60" etag="l0XMtTGVOQ3HW4opXzeJ" version="22.0.4" type="github">
  <diagram id="C5RBs43oDa-KdzZeNtuy" name="Page-1">
    <mxGraphModel dx="1042" dy="1746" grid="1" gridSize="10" guides="1" tooltips="1" connect="1" arrows="1" fold="1" page="1" pageScale="1" pageWidth="827" pageHeight="1169" math="0" shadow="0">
      <root>
        <mxCell id="WIyWlLk6GJQsqaUBKTNV-0" />
        <mxCell id="WIyWlLk6GJQsqaUBKTNV-1" parent="WIyWlLk6GJQsqaUBKTNV-0" />
        <mxCell id="0vAVI_CeYrNlBZFJAkP3-2" value="User" style="swimlane;fontStyle=0;childLayout=stackLayout;horizontal=1;startSize=30;horizontalStack=0;resizeParent=1;resizeParentMax=0;resizeLast=0;collapsible=1;marginBottom=0;whiteSpace=wrap;html=1;" vertex="1" parent="WIyWlLk6GJQsqaUBKTNV-1">
          <mxGeometry x="330" y="-10" width="140" height="210" as="geometry" />
        </mxCell>
        <mxCell id="0vAVI_CeYrNlBZFJAkP3-3" value="+id - Integer&lt;br&gt;+nama - String&lt;br&gt;+email - String&lt;br&gt;+role - Enum(&#39;admin&#39;, &#39;user&#39;)" style="text;strokeColor=default;fillColor=none;align=left;verticalAlign=middle;spacingLeft=4;spacingRight=4;overflow=hidden;points=[[0,0.5],[1,0.5]];portConstraint=eastwest;rotatable=0;whiteSpace=wrap;html=1;" vertex="1" parent="0vAVI_CeYrNlBZFJAkP3-2">
          <mxGeometry y="30" width="140" height="90" as="geometry" />
        </mxCell>
        <mxCell id="0vAVI_CeYrNlBZFJAkP3-12" value="+tambahPostingan()&lt;br&gt;+hapusPostingan()&lt;br&gt;+ubahPostingan()&lt;br&gt;+lihatPostingan()&lt;br&gt;+lihatDetail()&lt;br&gt;+manageUser()" style="text;strokeColor=default;fillColor=none;align=left;verticalAlign=middle;spacingLeft=4;spacingRight=4;overflow=hidden;points=[[0,0.5],[1,0.5]];portConstraint=eastwest;rotatable=0;whiteSpace=wrap;html=1;" vertex="1" parent="0vAVI_CeYrNlBZFJAkP3-2">
          <mxGeometry y="120" width="140" height="90" as="geometry" />
        </mxCell>
        <mxCell id="0vAVI_CeYrNlBZFJAkP3-13" value="Post" style="swimlane;fontStyle=0;childLayout=stackLayout;horizontal=1;startSize=30;horizontalStack=0;resizeParent=1;resizeParentMax=0;resizeLast=0;collapsible=1;marginBottom=0;whiteSpace=wrap;html=1;" vertex="1" parent="WIyWlLk6GJQsqaUBKTNV-1">
          <mxGeometry x="380" y="290" width="140" height="160" as="geometry" />
        </mxCell>
        <mxCell id="0vAVI_CeYrNlBZFJAkP3-14" value="+id_postingan - Integer&lt;br&gt;+id_user - Integer&lt;br&gt;+id_category - Integer&lt;br&gt;+slug - String&lt;br&gt;+description - String&lt;br&gt;+image - String" style="text;strokeColor=default;fillColor=none;align=left;verticalAlign=middle;spacingLeft=4;spacingRight=4;overflow=hidden;points=[[0,0.5],[1,0.5]];portConstraint=eastwest;rotatable=0;whiteSpace=wrap;html=1;" vertex="1" parent="0vAVI_CeYrNlBZFJAkP3-13">
          <mxGeometry y="30" width="140" height="100" as="geometry" />
        </mxCell>
        <mxCell id="0vAVI_CeYrNlBZFJAkP3-18" value="" style="text;strokeColor=default;fillColor=none;align=left;verticalAlign=middle;spacingLeft=4;spacingRight=4;overflow=hidden;points=[[0,0.5],[1,0.5]];portConstraint=eastwest;rotatable=0;whiteSpace=wrap;html=1;" vertex="1" parent="0vAVI_CeYrNlBZFJAkP3-13">
          <mxGeometry y="130" width="140" height="30" as="geometry" />
        </mxCell>
        <mxCell id="0vAVI_CeYrNlBZFJAkP3-19" value="Session" style="swimlane;fontStyle=0;childLayout=stackLayout;horizontal=1;startSize=30;horizontalStack=0;resizeParent=1;resizeParentMax=0;resizeLast=0;collapsible=1;marginBottom=0;whiteSpace=wrap;html=1;" vertex="1" parent="WIyWlLk6GJQsqaUBKTNV-1">
          <mxGeometry x="110" y="150" width="140" height="100" as="geometry" />
        </mxCell>
        <mxCell id="0vAVI_CeYrNlBZFJAkP3-20" value="+id_session - Integer&lt;br&gt;+id_user - Integer" style="text;strokeColor=default;fillColor=none;align=left;verticalAlign=middle;spacingLeft=4;spacingRight=4;overflow=hidden;points=[[0,0.5],[1,0.5]];portConstraint=eastwest;rotatable=0;whiteSpace=wrap;html=1;" vertex="1" parent="0vAVI_CeYrNlBZFJAkP3-19">
          <mxGeometry y="30" width="140" height="40" as="geometry" />
        </mxCell>
        <mxCell id="0vAVI_CeYrNlBZFJAkP3-21" value="+hapusSession()" style="text;strokeColor=none;fillColor=none;align=left;verticalAlign=middle;spacingLeft=4;spacingRight=4;overflow=hidden;points=[[0,0.5],[1,0.5]];portConstraint=eastwest;rotatable=0;whiteSpace=wrap;html=1;" vertex="1" parent="0vAVI_CeYrNlBZFJAkP3-19">
          <mxGeometry y="70" width="140" height="30" as="geometry" />
        </mxCell>
        <mxCell id="0vAVI_CeYrNlBZFJAkP3-23" value="Category" style="swimlane;fontStyle=0;childLayout=stackLayout;horizontal=1;startSize=30;horizontalStack=0;resizeParent=1;resizeParentMax=0;resizeLast=0;collapsible=1;marginBottom=0;whiteSpace=wrap;html=1;" vertex="1" parent="WIyWlLk6GJQsqaUBKTNV-1">
          <mxGeometry x="630" y="150" width="140" height="150" as="geometry" />
        </mxCell>
        <mxCell id="0vAVI_CeYrNlBZFJAkP3-24" value="+id_category - Integer&lt;br&gt;+id_user - Integer&lt;br&gt;+title - String" style="text;strokeColor=default;fillColor=none;align=left;verticalAlign=middle;spacingLeft=4;spacingRight=4;overflow=hidden;points=[[0,0.5],[1,0.5]];portConstraint=eastwest;rotatable=0;whiteSpace=wrap;html=1;" vertex="1" parent="0vAVI_CeYrNlBZFJAkP3-23">
          <mxGeometry y="30" width="140" height="50" as="geometry" />
        </mxCell>
        <mxCell id="0vAVI_CeYrNlBZFJAkP3-25" value="+hapusCategory()&lt;br&gt;+tambahCategory()&lt;br&gt;+ubahCategory()&lt;br&gt;+detailCategory()" style="text;strokeColor=none;fillColor=none;align=left;verticalAlign=middle;spacingLeft=4;spacingRight=4;overflow=hidden;points=[[0,0.5],[1,0.5]];portConstraint=eastwest;rotatable=0;whiteSpace=wrap;html=1;" vertex="1" parent="0vAVI_CeYrNlBZFJAkP3-23">
          <mxGeometry y="80" width="140" height="70" as="geometry" />
        </mxCell>
        <mxCell id="0vAVI_CeYrNlBZFJAkP3-27" value="Comment" style="swimlane;fontStyle=0;childLayout=stackLayout;horizontal=1;startSize=30;horizontalStack=0;resizeParent=1;resizeParentMax=0;resizeLast=0;collapsible=1;marginBottom=0;whiteSpace=wrap;html=1;" vertex="1" parent="WIyWlLk6GJQsqaUBKTNV-1">
          <mxGeometry x="110" y="370" width="140" height="150" as="geometry" />
        </mxCell>
        <mxCell id="0vAVI_CeYrNlBZFJAkP3-28" value="+id_comment - Integer&lt;br&gt;+id_user - Integer&lt;br&gt;+id_postingan - Integer&lt;br&gt;+message - String" style="text;strokeColor=default;fillColor=none;align=left;verticalAlign=middle;spacingLeft=4;spacingRight=4;overflow=hidden;points=[[0,0.5],[1,0.5]];portConstraint=eastwest;rotatable=0;whiteSpace=wrap;html=1;" vertex="1" parent="0vAVI_CeYrNlBZFJAkP3-27">
          <mxGeometry y="30" width="140" height="70" as="geometry" />
        </mxCell>
        <mxCell id="0vAVI_CeYrNlBZFJAkP3-29" value="+tambahComment()&lt;br&gt;+hapusComment()&lt;br&gt;+ubahComment()" style="text;strokeColor=none;fillColor=none;align=left;verticalAlign=middle;spacingLeft=4;spacingRight=4;overflow=hidden;points=[[0,0.5],[1,0.5]];portConstraint=eastwest;rotatable=0;whiteSpace=wrap;html=1;" vertex="1" parent="0vAVI_CeYrNlBZFJAkP3-27">
          <mxGeometry y="100" width="140" height="50" as="geometry" />
        </mxCell>
        <mxCell id="0vAVI_CeYrNlBZFJAkP3-31" value="Wishlist" style="swimlane;fontStyle=0;childLayout=stackLayout;horizontal=1;startSize=30;horizontalStack=0;resizeParent=1;resizeParentMax=0;resizeLast=0;collapsible=1;marginBottom=0;whiteSpace=wrap;html=1;" vertex="1" parent="WIyWlLk6GJQsqaUBKTNV-1">
          <mxGeometry x="310" y="500" width="140" height="110" as="geometry" />
        </mxCell>
        <mxCell id="0vAVI_CeYrNlBZFJAkP3-32" value="+id_wishlist - Integer&lt;br&gt;+id_user - Integer&lt;br&gt;+id_postingan - Integer" style="text;strokeColor=default;fillColor=none;align=left;verticalAlign=middle;spacingLeft=4;spacingRight=4;overflow=hidden;points=[[0,0.5],[1,0.5]];portConstraint=eastwest;rotatable=0;whiteSpace=wrap;html=1;" vertex="1" parent="0vAVI_CeYrNlBZFJAkP3-31">
          <mxGeometry y="30" width="140" height="50" as="geometry" />
        </mxCell>
        <mxCell id="0vAVI_CeYrNlBZFJAkP3-33" value="+hapusWishlist()" style="text;strokeColor=none;fillColor=none;align=left;verticalAlign=middle;spacingLeft=4;spacingRight=4;overflow=hidden;points=[[0,0.5],[1,0.5]];portConstraint=eastwest;rotatable=0;whiteSpace=wrap;html=1;" vertex="1" parent="0vAVI_CeYrNlBZFJAkP3-31">
          <mxGeometry y="80" width="140" height="30" as="geometry" />
        </mxCell>
        <mxCell id="0vAVI_CeYrNlBZFJAkP3-35" value="Like" style="swimlane;fontStyle=0;childLayout=stackLayout;horizontal=1;startSize=30;horizontalStack=0;resizeParent=1;resizeParentMax=0;resizeLast=0;collapsible=1;marginBottom=0;whiteSpace=wrap;html=1;" vertex="1" parent="WIyWlLk6GJQsqaUBKTNV-1">
          <mxGeometry x="570" y="480" width="140" height="110" as="geometry" />
        </mxCell>
        <mxCell id="0vAVI_CeYrNlBZFJAkP3-36" value="+id_like - Integer&lt;br&gt;+id_user - Integer&lt;br&gt;+id_postingan - Integer" style="text;strokeColor=default;fillColor=none;align=left;verticalAlign=middle;spacingLeft=4;spacingRight=4;overflow=hidden;points=[[0,0.5],[1,0.5]];portConstraint=eastwest;rotatable=0;whiteSpace=wrap;html=1;" vertex="1" parent="0vAVI_CeYrNlBZFJAkP3-35">
          <mxGeometry y="30" width="140" height="50" as="geometry" />
        </mxCell>
        <mxCell id="0vAVI_CeYrNlBZFJAkP3-38" value="+addLike()&lt;br&gt;+deleteLike()" style="text;strokeColor=none;fillColor=none;align=left;verticalAlign=middle;spacingLeft=4;spacingRight=4;overflow=hidden;points=[[0,0.5],[1,0.5]];portConstraint=eastwest;rotatable=0;whiteSpace=wrap;html=1;" vertex="1" parent="0vAVI_CeYrNlBZFJAkP3-35">
          <mxGeometry y="80" width="140" height="30" as="geometry" />
        </mxCell>
        <mxCell id="0vAVI_CeYrNlBZFJAkP3-40" value="" style="endArrow=classic;startArrow=classic;html=1;rounded=0;exitX=1;exitY=0.5;exitDx=0;exitDy=0;entryX=0.02;entryY=0.804;entryDx=0;entryDy=0;entryPerimeter=0;" edge="1" parent="WIyWlLk6GJQsqaUBKTNV-1" source="0vAVI_CeYrNlBZFJAkP3-20" target="0vAVI_CeYrNlBZFJAkP3-3">
          <mxGeometry width="50" height="50" relative="1" as="geometry">
            <mxPoint x="370" y="330" as="sourcePoint" />
            <mxPoint x="420" y="280" as="targetPoint" />
          </mxGeometry>
        </mxCell>
        <mxCell id="0vAVI_CeYrNlBZFJAkP3-43" value="" style="endArrow=classic;html=1;rounded=0;entryX=-0.034;entryY=0.888;entryDx=0;entryDy=0;entryPerimeter=0;exitX=1;exitY=0;exitDx=0;exitDy=0;" edge="1" parent="WIyWlLk6GJQsqaUBKTNV-1" source="0vAVI_CeYrNlBZFJAkP3-13" target="0vAVI_CeYrNlBZFJAkP3-24">
          <mxGeometry width="50" height="50" relative="1" as="geometry">
            <mxPoint x="520" y="363.4" as="sourcePoint" />
            <mxPoint x="626.3599999999999" y="189.99999999999991" as="targetPoint" />
          </mxGeometry>
        </mxCell>
        <mxCell id="0vAVI_CeYrNlBZFJAkP3-42" value="" style="endArrow=classic;html=1;rounded=0;entryX=0;entryY=0;entryDx=0;entryDy=0;exitX=1;exitY=0.5;exitDx=0;exitDy=0;" edge="1" parent="WIyWlLk6GJQsqaUBKTNV-1" source="0vAVI_CeYrNlBZFJAkP3-3" target="0vAVI_CeYrNlBZFJAkP3-23">
          <mxGeometry width="50" height="50" relative="1" as="geometry">
            <mxPoint x="489.99999999999994" y="-15.159999999999997" as="sourcePoint" />
            <mxPoint x="648.7399999999999" y="150.00000000000009" as="targetPoint" />
          </mxGeometry>
        </mxCell>
        <mxCell id="0vAVI_CeYrNlBZFJAkP3-45" value="" style="endArrow=classic;html=1;rounded=0;entryX=0.834;entryY=1.047;entryDx=0;entryDy=0;entryPerimeter=0;" edge="1" parent="WIyWlLk6GJQsqaUBKTNV-1" source="0vAVI_CeYrNlBZFJAkP3-13" target="0vAVI_CeYrNlBZFJAkP3-12">
          <mxGeometry width="50" height="50" relative="1" as="geometry">
            <mxPoint x="492" y="514" as="sourcePoint" />
            <mxPoint x="440" y="200" as="targetPoint" />
          </mxGeometry>
        </mxCell>
        <mxCell id="0vAVI_CeYrNlBZFJAkP3-46" value="" style="endArrow=classic;html=1;rounded=0;exitX=1;exitY=0.067;exitDx=0;exitDy=0;exitPerimeter=0;entryX=-0.037;entryY=0.094;entryDx=0;entryDy=0;entryPerimeter=0;" edge="1" parent="WIyWlLk6GJQsqaUBKTNV-1" source="0vAVI_CeYrNlBZFJAkP3-27" target="0vAVI_CeYrNlBZFJAkP3-14">
          <mxGeometry width="50" height="50" relative="1" as="geometry">
            <mxPoint x="370" y="410" as="sourcePoint" />
            <mxPoint x="420" y="360" as="targetPoint" />
          </mxGeometry>
        </mxCell>
        <mxCell id="0vAVI_CeYrNlBZFJAkP3-47" value="" style="endArrow=classic;html=1;rounded=0;entryX=0.146;entryY=1.113;entryDx=0;entryDy=0;entryPerimeter=0;" edge="1" parent="WIyWlLk6GJQsqaUBKTNV-1" target="0vAVI_CeYrNlBZFJAkP3-18">
          <mxGeometry width="50" height="50" relative="1" as="geometry">
            <mxPoint x="370" y="500" as="sourcePoint" />
            <mxPoint x="420" y="450" as="targetPoint" />
          </mxGeometry>
        </mxCell>
        <mxCell id="0vAVI_CeYrNlBZFJAkP3-48" value="" style="endArrow=classic;html=1;rounded=0;entryX=1;entryY=0.5;entryDx=0;entryDy=0;exitX=0.5;exitY=0;exitDx=0;exitDy=0;" edge="1" parent="WIyWlLk6GJQsqaUBKTNV-1" source="0vAVI_CeYrNlBZFJAkP3-35" target="0vAVI_CeYrNlBZFJAkP3-14">
          <mxGeometry width="50" height="50" relative="1" as="geometry">
            <mxPoint x="370" y="500" as="sourcePoint" />
            <mxPoint x="420" y="450" as="targetPoint" />
          </mxGeometry>
        </mxCell>
      </root>
    </mxGraphModel>
  </diagram>
</mxfile>
